<?xml version="1.0" standalone="no"?><!DOCTYPE svg PUBLIC "-//W3C//DTD SVG 1.1//EN" "http://www.w3.org/Graphics/SVG/1.1/DTD/svg11.dtd"><svg t="1602750247993" class="icon" viewBox="0 0 1024 1024" version="1.1" xmlns="http://www.w3.org/2000/svg" p-id="2037" xmlns:xlink="http://www.w3.org/1999/xlink" width="200" height="200"><defs><style type="text/css"></style></defs><path d="M684.75 228.14c-111.49-26-209.07 71.6-183.09 183.09 11.42 49 61.48 99 110.45 110.45 111.49 26 209.06-71.6 183.09-183.09-11.42-48.97-61.48-99.03-110.45-110.45z m-36.32 217.77a71 71 0 1 1 71-71 71 71 0 0 1-71 71z" fill="#999999" p-id="2038"></path><path d="M890 64H134a70 70 0 0 0-70 70v756a70 70 0 0 0 70 70h756a70 70 0 0 0 70-70V134a70 70 0 0 0-70-70zM144 840v-24.28l34.82-34.82 115.52-115.82L456.2 826.53a40.79 40.79 0 0 0 57.12 0l87.94-88.3L743.33 880H184a40 40 0 0 1-40-40z m736 0a40 40 0 0 1-26.29 37.59L629.43 653.72a40.1 40.1 0 0 0-56.55 0l-88.23 88.6-162.22-161.79a40 40 0 0 0-56.43 0c-0.6 0.6-1.17 1.21-1.72 1.84L144 702.92V184a40 40 0 0 1 40-40h656a40 40 0 0 1 40 40z" fill="#999999" p-id="2039"></path></svg>