<?xml version="1.0" standalone="no"?><!DOCTYPE svg PUBLIC "-//W3C//DTD SVG 1.1//EN" "http://www.w3.org/Graphics/SVG/1.1/DTD/svg11.dtd"><svg t="1602750240366" class="icon" viewBox="0 0 1024 1024" version="1.1" xmlns="http://www.w3.org/2000/svg" p-id="1904" xmlns:xlink="http://www.w3.org/1999/xlink" width="200" height="200"><defs><style type="text/css"></style></defs><path d="M136 256m-40 0a40 40 0 1 0 80 0 40 40 0 1 0-80 0Z" fill="#999999" p-id="1905"></path><path d="M136 512m-40 0a40 40 0 1 0 80 0 40 40 0 1 0-80 0Z" fill="#999999" p-id="1906"></path><path d="M136 768m-40 0a40 40 0 1 0 80 0 40 40 0 1 0-80 0Z" fill="#999999" p-id="1907"></path><path d="M296 296.43h591.17c22.45 0 41.27-18.37 40.82-40.82a40 40 0 0 0-40-39.18H296.83c-22.45 0-41.27 18.37-40.82 40.82A40 40 0 0 0 296 296.43zM888 472.21H296.83c-22.45 0-41.27 18.38-40.82 40.82a40 40 0 0 0 40 39.18h591.16c22.45 0 41.27-18.37 40.82-40.81A40 40 0 0 0 888 472.21zM888 728H296.83c-22.45 0-41.27 18.37-40.82 40.82A40 40 0 0 0 296 808h591.17c22.45 0 41.27-18.37 40.82-40.82A40 40 0 0 0 888 728z" fill="#999999" p-id="1908"></path></svg>