<?xml version="1.0" standalone="no"?><!DOCTYPE svg PUBLIC "-//W3C//DTD SVG 1.1//EN" "http://www.w3.org/Graphics/SVG/1.1/DTD/svg11.dtd"><svg t="1602750204309" class="icon" viewBox="0 0 1024 1024" version="1.1" xmlns="http://www.w3.org/2000/svg" p-id="1642" xmlns:xlink="http://www.w3.org/1999/xlink" width="200" height="200"><defs><style type="text/css"></style></defs><path d="M797 293.965625l-0.09375-0.09375-34.903125-34.903125-1.96875-1.96875-75-75H482v-13.85625c0-58.03125-46.59375-105.9375-104.625-106.14375A105 105 0 0 0 272 167v15h-54.375a65.625 65.625 0 0 0-65.625 65.625v648.75a65.625 65.625 0 0 0 65.625 65.625h588.75a65.625 65.625 0 0 0 65.625-65.625V368.965625z m-90 16.06875L743.965625 347H707zM347 167a30 30 0 0 1 30.84375-30c16.340625 0.45 29.15625 14.26875 29.15625 30.61875V182h-60z m450 684.375a37.5 37.5 0 0 1-37.5 37.5H264.5a37.5 37.5 0 0 1-37.5-37.5V296.375a37.5 37.5 0 0 1 37.5-37.5h7.5v116.98125c0 58.03125 46.59375 105.9375 104.625 106.14375A105 105 0 0 0 482 377v-21.440625a37.5 37.5 0 0 0-75-1.359375v22.171875c0 16.35-12.815625 30.16875-29.15625 30.61875A30 30 0 0 1 347 377V258.875h285v97.5a65.625 65.625 0 0 0 65.625 65.625h99.375z" fill="#999999" p-id="1643"></path></svg>