<?xml version="1.0" standalone="no"?><!DOCTYPE svg PUBLIC "-//W3C//DTD SVG 1.1//EN" "http://www.w3.org/Graphics/SVG/1.1/DTD/svg11.dtd"><svg t="1602750253286" class="icon" viewBox="0 0 1024 1024" version="1.1" xmlns="http://www.w3.org/2000/svg" p-id="2168" xmlns:xlink="http://www.w3.org/1999/xlink" width="200" height="200"><defs><style type="text/css"></style></defs><path d="M946.64 491.81l-385.5-379.58a70 70 0 0 0-98.21 0L77.37 491.81C49 519.74 68.78 568 108.58 568H174v352.1a40 40 0 0 0 40 40h237.86V668a20 20 0 0 1 20-20h80a20 20 0 0 1 20 20v292.11h236.19a40 40 0 0 0 40-40V568h67.38c39.8 0 59.57-48.26 31.21-76.19zM768.05 840.08a40 40 0 0 1-40 40h-76.18V608a40 40 0 0 0-40-40h-200a40 40 0 0 0-40 40v272.09H294a40 40 0 0 1-40-40V488h-25.54a14 14 0 0 1-9.77-24L484 205.53c15.57-17.23 40.55-17.22 56.12 0L805.38 464a14 14 0 0 1-9.77 24h-27.56v352.08z" fill="#999999" p-id="2169"></path></svg>